<svg width="114" height="70" viewBox="0 0 114 70" fill="none" xmlns="http://www.w3.org/2000/svg">
<g clip-path="url(#clip0_326_159)">
<path d="M9.85181 60.2V3.5534C9.85181 2.36412 10.8158 1.40002 12.0211 1.40002H101.979C103.177 1.40002 104.148 2.36008 104.148 3.53695V59.5058" stroke="#FFFFFE" stroke-width="1.5"/>
<path d="M16.9613 58.8L16.8889 10.4709C16.8889 9.3272 17.8429 8.40002 19.0283 8.40002H94.7338C95.9153 8.40002 96.8732 9.32707 96.8732 10.4732L97.1111 47.8984" stroke="#FFFFFE" stroke-width="1.5"/>
<path d="M5.65524 59.1942L46.2054 59.3341V62.8401L67.7947 63.0311V59.427L112.593 58.8V62.5591C112.593 65.8954 109.927 68.6 106.654 68.6H7.34596C4.06622 68.6 1.40747 65.8976 1.40747 62.5591" stroke="#FFFFFE" stroke-width="1.5"/>
<path fill-rule="evenodd" clip-rule="evenodd" d="M57.0755 24.5986C58.3117 22.3952 60.8137 20.9771 63.4436 21.0003C64.4901 21.0237 65.493 21.2577 66.4087 21.7023C68.1965 22.5916 69.4828 24.1127 70.0497 25.9849C70.7256 28.2549 70.3331 30.8291 68.8724 33.4501C66.9102 37.054 63.4218 39.8154 57.666 44.3788L57.3389 44.6362C57.24 44.7246 57.1163 44.773 56.9864 44.7913L56.9863 44.8C56.9595 44.8 56.9349 44.7995 56.9122 44.7985C56.8946 44.7995 56.8769 44.8 56.8593 44.8C56.8593 44.8 56.8593 44.7987 56.8593 44.796C56.7021 44.7802 56.6528 44.7317 56.5451 44.6368L56.2142 44.3571C50.4563 39.7183 46.9927 36.8977 45.0513 33.2846C43.6394 30.6505 43.2644 28.0631 43.9924 25.8253C44.5881 23.9604 45.9338 22.4686 47.7428 21.6294C48.6693 21.2098 49.6841 21 50.7431 21C53.3685 21.0229 55.7591 22.4664 57.0755 24.5986Z" fill="#FF8906"/>
</g>
<defs>
<clipPath id="clip0_326_159">
<rect width="114" height="70" fill="white"/>
</clipPath>
</defs>
</svg>
