<svg width="115" height="60" viewBox="0 0 115 60" fill="none" xmlns="http://www.w3.org/2000/svg">
<path fill-rule="evenodd" clip-rule="evenodd" d="M25.3601 2.81781C11.3528 2.81781 0 14.0268 0 27.8568C0 38.9177 7.26426 48.3042 17.3432 51.6179C18.612 51.8439 19.0696 51.0732 19.0696 50.4104C19.0696 49.8154 19.0493 48.2389 19.0417 46.1527C11.9859 47.664 10.4959 42.7938 10.4959 42.7938C9.34666 39.9018 7.68125 39.1311 7.68125 39.1311C5.38018 37.5771 7.85669 37.6123 7.85669 37.6123C10.4044 37.788 11.7393 40.193 11.7393 40.193C14.0022 44.0189 17.6788 42.9143 19.1179 42.2741C19.3493 40.6549 20.0104 39.5503 20.7325 38.9252C15.1031 38.2951 9.18393 36.1462 9.18393 26.5488C9.18393 23.82 10.173 21.5807 11.7876 19.8335C11.5308 19.1983 10.6536 16.6502 12.0393 13.2059C12.0393 13.2059 14.1675 12.5306 19.0111 15.7691C21.0798 15.2135 23.2137 14.9298 25.3575 14.9256C27.5014 14.929 29.6354 15.2126 31.7039 15.7691C36.5501 12.5281 38.6757 13.2059 38.6757 13.2059C40.0615 16.6502 39.1919 19.1983 38.9275 19.8335C40.5547 21.5807 41.5311 23.8175 41.5311 26.5488C41.5311 36.1713 35.6068 38.2851 29.9571 38.9051C30.8597 39.6783 31.6734 41.2047 31.6734 43.5394C31.6734 46.8883 31.6429 49.5895 31.6429 50.4104C31.6429 51.0807 32.0955 51.8589 33.3896 51.6129C43.4635 48.2941 50.7201 38.9152 50.7201 27.8568C50.7201 14.0268 39.3673 2.81781 25.3601 2.81781Z" fill="#FF8906"/>
<path d="M83.3297 4.93115C68.8141 4.93115 56.9377 16.0262 56.9377 29.5868C56.9377 43.1474 68.8141 54.2424 83.3297 54.2424C97.8452 54.2424 109.722 43.1474 109.722 29.5868C109.722 16.0262 97.8452 4.93115 83.3297 4.93115Z" fill="#FF8906"/>
<path d="M75.4122 23.4229H70.1338V41.9146H75.4122V23.4229Z" fill="black"/>
<path d="M72.773 20.9572C71.1895 20.9572 70.1338 19.8477 70.1338 18.4917C70.1338 17.1356 71.1895 16.0261 72.773 16.0261C74.3565 16.0261 75.4122 17.1356 75.4122 18.4917C75.4122 19.8477 74.3565 20.9572 72.773 20.9572Z" fill="black"/>
<path d="M97.8452 30.2031C97.8452 26.5048 94.5462 23.4229 90.5874 23.4229C88.0802 23.4229 85.9688 24.5324 84.6492 26.2582V23.4229H79.3708V41.9146H84.6492V32.0523C84.6492 29.9566 86.3647 28.354 88.608 28.354C90.8513 28.354 92.5668 29.9566 92.5668 32.0523V41.9146H97.8452C97.8452 41.9146 97.8452 30.6963 97.8452 30.2031Z" fill="black"/>
</svg>
