<svg width="81" height="72" viewBox="0 0 81 72" fill="none" xmlns="http://www.w3.org/2000/svg">
<path fill-rule="evenodd" clip-rule="evenodd" d="M28.818 1.54854C28.3296 1.06957 27.5466 1.07337 27.0629 1.55707L1.85976 26.7602C1.85548 26.7645 1.85548 26.7645 1.85123 26.7688C1.36895 27.2605 1.37662 28.0501 1.86837 28.5324L43.7719 69.6291C44.2602 70.1081 45.0433 70.1042 45.527 69.6206L70.7301 44.4174C70.7344 44.4132 70.7344 44.4132 70.7386 44.4088C71.2209 43.9171 71.2132 43.1275 70.7215 42.6452L28.818 1.54854Z" stroke="#484848" stroke-width="1.3"/>
<path fill-rule="evenodd" clip-rule="evenodd" d="M23.0671 13.4129C23.0671 13.4129 27.3047 17.6971 32.5494 13.0015L59.1804 39.6325C59.1804 39.6325 55.3622 43.4943 58.8198 48.2587C55.9043 51.1742 48.5799 58.4986 48.5799 58.4986C48.5799 58.4986 44.0183 54.8763 39.5179 59.3767C37.6922 57.6282 12.8734 32.8094 12.8734 32.8094C12.8734 32.8094 16.7484 27.8673 12.7026 23.8215C16.5419 19.9821 23.0671 13.4129 23.0671 13.4129Z" fill="#FF8906"/>
<path d="M27.0688 44.4822C30.8149 48.2283 36.8919 48.225 40.6421 44.4749C44.3922 40.7247 44.3955 34.6477 40.6494 30.9016C36.9033 27.1555 30.8263 27.1588 27.0762 30.9089C23.326 34.6591 23.3227 40.7361 27.0688 44.4822Z" fill="white" stroke="#484848" stroke-width="1.2"/>
<path d="M33.0192 33.6171C31.9519 34.6835 31.9692 35.8893 33.0806 37.7813L33.6543 38.718C34.1729 39.7044 34.0678 40.103 33.7123 40.4585C33.2824 40.8881 32.6964 40.8442 32.0652 40.3376C32.0637 40.3364 31.9816 40.266 31.8633 40.1479C31.7229 40.0074 31.5319 39.8008 31.3609 39.5588C31.0289 39.0895 30.7152 38.2571 30.6002 37.541C30.5789 37.3646 30.4905 37.1884 30.3594 37.0571C30.0206 36.7188 29.491 36.7189 29.1524 37.0571C28.9343 37.2749 28.8551 37.5572 28.9214 37.8692C29.0955 38.8749 29.4936 39.7809 30.1057 40.5632L29.5754 41.0931C29.1615 41.5069 29.3959 42.3297 30.2632 42.3208C30.2973 42.3205 30.3319 42.3057 30.356 42.2815L31.0707 41.5675C32.4595 42.6721 34.0176 42.7167 35.0622 41.6735C36.1256 40.6104 36.0991 39.3561 34.9729 37.4817L34.4179 36.5262C33.9226 35.5559 34.0191 35.1817 34.3697 34.8314C34.7853 34.4163 35.3648 34.4618 35.9607 34.9546C35.963 34.9566 36.0506 35.0273 36.1703 35.1467C36.3059 35.2821 36.4974 35.4951 36.6375 35.742C36.819 36.059 37.0605 36.5902 37.1943 37.1273C37.2376 37.3002 37.3154 37.4431 37.4241 37.5513C37.7681 37.8948 38.302 37.8988 38.6403 37.561C38.8644 37.3372 38.9337 37.0434 38.8421 36.7146C38.6736 35.974 38.3708 35.3231 37.9166 34.7278L38.585 34.0601C38.6088 34.0359 38.624 34.0014 38.624 33.9673C38.6334 33.1011 37.8095 32.8669 37.3956 33.2804L36.944 33.7316C36.2421 33.1576 35.4919 32.8686 34.7873 32.8686C34.1338 32.8686 33.5196 33.1171 33.0192 33.6171Z" fill="#484848"/>
<path fill-rule="evenodd" clip-rule="evenodd" d="M38.8136 47.9273C38.1754 47.9273 37.5591 48.0531 36.982 48.2719C37.6803 46.4357 37.2998 44.2792 35.8224 42.8025C34.3722 41.3539 32.2706 40.9686 30.4571 41.6119C31.1008 39.7989 30.7145 37.6995 29.2654 36.2515C27.7865 34.7738 25.6286 34.3949 23.7905 35.0927C24.0094 34.5156 24.1355 33.9007 24.1355 33.2631C24.1355 31.8856 23.6027 30.594 22.6333 29.6262C21.6651 28.658 20.3729 28.1252 18.9935 28.1252C17.615 28.1252 16.323 28.658 15.3535 29.6262L8.27631 36.6972C7.30709 37.6645 6.77368 38.9564 6.77368 40.3339C6.77368 41.7118 7.30709 43.0031 8.27631 43.9711C9.24407 44.9386 10.537 45.4712 11.9165 45.4712C12.5552 45.4712 13.1698 45.3456 13.7485 45.1266C13.0494 46.9627 13.4298 49.1194 14.9072 50.5958C15.9108 51.5991 17.2286 52.1 18.5474 52.1C19.1341 52.1 19.716 51.9844 20.2751 51.7865C20.0813 52.3333 19.9622 52.911 19.9622 53.5098C19.9622 54.8878 20.4953 56.1797 21.4647 57.1475C22.4334 58.1148 23.7265 58.6481 25.1044 58.6481C25.7445 58.6481 26.3611 58.5214 26.9402 58.3021C26.7202 58.8804 26.5946 59.4969 26.5946 60.1357C26.5946 61.513 27.1273 62.8049 28.0966 63.7725C29.0648 64.7408 30.3571 65.2735 31.7362 65.2735C33.1146 65.2735 34.4069 64.7408 35.3764 63.7725L42.4536 56.7014C43.4227 55.7338 43.9562 54.4425 43.9562 53.0647C43.9562 51.6872 43.4227 50.3959 42.4536 49.4278C41.486 48.4601 40.1929 47.9273 38.8136 47.9273Z" fill="white" stroke="#484848" stroke-width="1.3" stroke-linejoin="round"/>
<path fill-rule="evenodd" clip-rule="evenodd" d="M79.4414 12.1322H51.8592L43.9155 4.24648L43.794 4.12578C43.4949 3.85677 43.1077 3.68146 42.6729 3.68146C42.2231 3.68146 41.8192 3.8638 41.5168 4.14999L26.3076 19.4526C33.8561 26.7317 40.0342 19.3188 40.0342 19.3188L43.4039 15.9446L66.3691 38.7206L79.4414 38.608V12.1322Z" fill="white" stroke="#484848" stroke-width="1.3" stroke-linejoin="round"/>
<path d="M13.0786 45.9434L24.2379 35.1092" stroke="#484848" stroke-width="1.2"/>
<path d="M20.0288 51.8707L30.4934 41.3948" stroke="#484848" stroke-width="1.2"/>
<path d="M26.3076 58.8546L37.4699 47.6803" stroke="#484848" stroke-width="1.2"/>
</svg>
